<svg width="113" height="113" viewBox="0 0 113 113" fill="none" xmlns="http://www.w3.org/2000/svg">
<path d="M57 51.9583C54.5938 51.9583 52.3459 51.0183 50.6565 49.329C48.9671 47.6396 48.0271 45.3916 48.0271 42.9854C48.0271 40.5792 48.9671 38.3313 50.6565 36.6419C52.3459 34.9525 54.5938 34.0125 57 34.0125C59.4062 34.0125 61.6541 34.9525 63.3435 36.6419C65.0329 38.3313 65.9729 40.5792 65.9729 42.9854C65.9729 45.3916 65.0329 47.6396 63.3435 49.329C61.6541 51.0183 59.4062 51.9583 57 51.9583ZM30.0812 78.9042C30.0812 78.9042 21.1083 67.7083 21.1083 42.9854C21.1083 32.9596 25.0646 23.3433 32.0796 16.3284C39.0945 9.31343 48.7108 5.35712 58.7367 5.35712H55.2633C65.2892 5.35712 74.9055 9.31343 81.9204 16.3284C88.9354 23.3433 92.8917 32.9596 92.8917 42.9854C92.8917 67.7083 83.9188 78.9042 83.9188 78.9042H30.0812Z" stroke="#ED1C24" stroke-width="2" stroke-linecap="round" stroke-linejoin="round"/>
<path d="M57 107.214C62.1342 107.214 66.2979 103.05 66.2979 97.9162H47.7021C47.7021 100.322 48.6421 102.63 50.3315 104.319C52.0209 106.009 54.3259 106.949 57 106.949" stroke="#ED1C24" stroke-width="2" stroke-linecap="round" stroke-linejoin="round"/>
<path d="M83.9188 78.9042C83.9188 78.9042 83.9188 87.6187 83.9188 92.9812C83.9188 94.4229 83.3473 95.8058 82.3292 96.8239C81.3111 97.842 79.9282 98.4135 78.4865 98.4135H35.5135C34.0718 98.4135 32.6889 97.842 31.6708 96.8239C30.6527 95.8058 30.0812 94.4229 30.0812 92.9812C30.0812 87.6187 30.0812 78.9042 30.0812 78.9042" stroke="#ED1C24" stroke-width="2" stroke-linecap="round" stroke-linejoin="round"/>
<path d="M42.5 29.0458L57 24.0458L71.5 29.0458" stroke="#ED1C24" stroke-width="2" stroke-linecap="round" stroke-linejoin="round"/>
</svg>
